<svg width="32" height="32" viewBox="0 0 32 32" fill="none" xmlns="http://www.w3.org/2000/svg">
<path d="M28.667 19.9999C28.664 19.1995 28.421 18.4184 27.9694 17.7576C27.5178 17.0968 26.8783 16.5867 26.1337 16.2932L28.627 6.95985C28.6791 6.76108 28.6845 6.55296 28.6429 6.35173C28.6013 6.15051 28.5137 5.96164 28.387 5.79985C28.2575 5.64826 28.0956 5.52764 27.9133 5.44688C27.731 5.36612 27.533 5.32726 27.3337 5.33318H9.06699L8.62699 3.65318C8.55049 3.36906 8.38216 3.11823 8.14823 2.93976C7.91429 2.7613 7.62789 2.66523 7.33366 2.66652H4.66699V5.33318H6.30699L9.61366 17.6799C9.69179 17.9707 9.86611 18.2266 10.1082 18.4058C10.3503 18.5849 10.646 18.6768 10.947 18.6665H24.667C25.0206 18.6665 25.3598 18.807 25.6098 19.057C25.8599 19.3071 26.0003 19.6462 26.0003 19.9999C26.0003 20.3535 25.8599 20.6926 25.6098 20.9427C25.3598 21.1927 25.0206 21.3332 24.667 21.3332H7.33366C6.98004 21.3332 6.6409 21.4737 6.39085 21.7237C6.1408 21.9738 6.00033 22.3129 6.00033 22.6665C6.00033 23.0201 6.1408 23.3593 6.39085 23.6093C6.6409 23.8594 6.98004 23.9999 7.33366 23.9999H8.90699C8.68771 24.604 8.61724 25.2521 8.70157 25.8893C8.78589 26.5265 9.02252 27.134 9.39142 27.6603C9.76031 28.1867 10.2506 28.6164 10.8208 28.913C11.391 29.2097 12.0243 29.3645 12.667 29.3645C13.3097 29.3645 13.943 29.2097 14.5132 28.913C15.0834 28.6164 15.5737 28.1867 15.9426 27.6603C16.3115 27.134 16.5481 26.5265 16.6324 25.8893C16.7167 25.2521 16.6463 24.604 16.427 23.9999H19.5737C19.374 24.55 19.2976 25.1372 19.3496 25.7201C19.4017 26.3031 19.5811 26.8675 19.8751 27.3735C20.169 27.8795 20.5705 28.3149 21.051 28.6489C21.5316 28.9829 22.0796 29.2073 22.6564 29.3064C23.2332 29.4056 23.8247 29.3769 24.3892 29.2225C24.9537 29.068 25.4774 28.7916 25.9235 28.4127C26.3695 28.0338 26.7269 27.5617 26.9706 27.0296C27.2143 26.4975 27.3382 25.9184 27.3337 25.3332C27.3312 24.6443 27.1472 23.9683 26.8003 23.3732C27.3705 23.0137 27.8406 22.516 28.1669 21.9263C28.4932 21.3365 28.6653 20.6739 28.667 19.9999ZM23.4537 15.9999H12.0003L9.78699 7.99985H25.6003L23.4537 15.9999ZM12.667 26.6665C12.4033 26.6665 12.1455 26.5883 11.9262 26.4418C11.707 26.2953 11.5361 26.0871 11.4352 25.8434C11.3342 25.5998 11.3078 25.3317 11.3593 25.0731C11.4107 24.8144 11.5377 24.5768 11.7242 24.3904C11.9107 24.2039 12.1482 24.0769 12.4069 24.0255C12.6655 23.974 12.9336 24.0004 13.1772 24.1013C13.4209 24.2023 13.6291 24.3732 13.7756 24.5924C13.9221 24.8117 14.0003 25.0695 14.0003 25.3332C14.0003 25.6868 13.8598 26.0259 13.6098 26.276C13.3598 26.526 13.0206 26.6665 12.667 26.6665ZM23.3337 26.6665C23.07 26.6665 22.8122 26.5883 22.5929 26.4418C22.3736 26.2953 22.2027 26.0871 22.1018 25.8434C22.0009 25.5998 21.9745 25.3317 22.0259 25.0731C22.0774 24.8144 22.2044 24.5768 22.3909 24.3904C22.5773 24.2039 22.8149 24.0769 23.0735 24.0255C23.3322 23.974 23.6003 24.0004 23.8439 24.1013C24.0875 24.2023 24.2958 24.3732 24.4423 24.5924C24.5888 24.8117 24.667 25.0695 24.667 25.3332C24.667 25.6868 24.5265 26.0259 24.2765 26.276C24.0264 26.526 23.6873 26.6665 23.3337 26.6665Z" fill="white"/>
</svg>
