<svg width="20" height="20" viewBox="0 0 20 20" fill="none" xmlns="http://www.w3.org/2000/svg">
<path d="M6.18341 12.9502C6.0282 13.1063 5.94108 13.3175 5.94108 13.5377C5.94108 13.7578 6.0282 13.969 6.18341 14.1252C6.26088 14.2033 6.35305 14.2653 6.4546 14.3076C6.55615 14.3499 6.66507 14.3717 6.77508 14.3717C6.88509 14.3717 6.99401 14.3499 7.09556 14.3076C7.19711 14.2653 7.28928 14.2033 7.36675 14.1252C7.52195 13.969 7.60907 13.7578 7.60907 13.5377C7.60907 13.3175 7.52195 13.1063 7.36675 12.9502C7.28928 12.872 7.19711 12.8101 7.09556 12.7677C6.99401 12.7254 6.88509 12.7037 6.77508 12.7037C6.66507 12.7037 6.55615 12.7254 6.4546 12.7677C6.35305 12.8101 6.26088 12.872 6.18341 12.9502V12.9502ZM6.18341 5.87516C6.0282 6.03129 5.94108 6.2425 5.94108 6.46266C5.94108 6.68281 6.0282 6.89402 6.18341 7.05016C6.26088 7.12826 6.35305 7.19026 6.4546 7.23257C6.55615 7.27487 6.66507 7.29665 6.77508 7.29665C6.88509 7.29665 6.99401 7.27487 7.09556 7.23257C7.19711 7.19026 7.28928 7.12826 7.36675 7.05016C7.52195 6.89402 7.60907 6.68281 7.60907 6.46266C7.60907 6.2425 7.52195 6.03129 7.36675 5.87516C7.28928 5.79705 7.19711 5.73505 7.09556 5.69275C6.99401 5.65044 6.88509 5.62866 6.77508 5.62866C6.66507 5.62866 6.55615 5.65044 6.4546 5.69275C6.35305 5.73505 6.26088 5.79705 6.18341 5.87516ZM10.3084 14.2085C10.1436 14.2085 9.98248 14.2574 9.84544 14.3489C9.7084 14.4405 9.60158 14.5706 9.53851 14.7229C9.47544 14.8752 9.45894 15.0427 9.49109 15.2044C9.52324 15.366 9.60261 15.5145 9.71916 15.6311C9.8357 15.7476 9.98419 15.827 10.1458 15.8591C10.3075 15.8913 10.475 15.8748 10.6273 15.8117C10.7796 15.7486 10.9097 15.6418 11.0013 15.5048C11.0929 15.3678 11.1417 15.2066 11.1417 15.0418C11.1474 14.9289 11.13 14.8161 11.0907 14.7101C11.0513 14.6041 10.9909 14.5073 10.9129 14.4254C10.8349 14.3436 10.7412 14.2785 10.6372 14.234C10.5333 14.1895 10.4214 14.1667 10.3084 14.1668V14.2085ZM5.30841 9.20849C5.14359 9.20849 4.98248 9.25736 4.84544 9.34893C4.7084 9.4405 4.60158 9.57065 4.53851 9.72292C4.47544 9.87519 4.45894 10.0427 4.49109 10.2044C4.52324 10.366 4.60261 10.5145 4.71916 10.6311C4.8357 10.7476 4.98419 10.827 5.14584 10.8591C5.30749 10.8913 5.47504 10.8748 5.62731 10.8117C5.77959 10.7486 5.90974 10.6418 6.0013 10.5048C6.09287 10.3678 6.14174 10.2066 6.14174 10.0418C6.1474 9.92893 6.13002 9.81607 6.09068 9.71011C6.05134 9.60415 5.99085 9.50729 5.9129 9.42544C5.83495 9.34359 5.74116 9.27846 5.63724 9.234C5.53332 9.18954 5.42144 9.16668 5.30841 9.16682V9.20849ZM10.3084 4.20849C10.1436 4.20849 9.98248 4.25736 9.84544 4.34893C9.7084 4.4405 9.60158 4.57065 9.53851 4.72292C9.47544 4.87519 9.45894 5.04275 9.49109 5.2044C9.52324 5.36605 9.60261 5.51453 9.71916 5.63108C9.8357 5.74762 9.98419 5.82699 10.1458 5.85914C10.3075 5.8913 10.475 5.8748 10.6273 5.81172C10.7796 5.74865 10.9097 5.64184 11.0013 5.5048C11.0929 5.36776 11.1417 5.20664 11.1417 5.04182C11.1474 4.92893 11.13 4.81607 11.0907 4.71011C11.0513 4.60415 10.9909 4.50729 10.9129 4.42544C10.8349 4.34359 10.7412 4.27846 10.6372 4.234C10.5333 4.18954 10.4214 4.16668 10.3084 4.16682V4.20849ZM13.2584 5.91682C13.1414 6.03317 13.0615 6.18164 13.029 6.34343C12.9964 6.50522 13.0126 6.67303 13.0755 6.82559C13.1385 6.97815 13.2453 7.10859 13.3824 7.20038C13.5196 7.29216 13.6809 7.34116 13.8459 7.34116C14.0109 7.34116 14.1723 7.29216 14.3094 7.20038C14.4466 7.10859 14.5534 6.97815 14.6163 6.82559C14.6792 6.67303 14.6954 6.50522 14.6629 6.34343C14.6303 6.18164 14.5505 6.03317 14.4334 5.91682C14.2829 5.75595 14.0747 5.66126 13.8545 5.65345C13.6343 5.64564 13.42 5.72535 13.2584 5.87516V5.91682ZM18.5084 5.91682C17.7465 4.39374 16.5754 3.113 15.1264 2.21824C13.6774 1.32348 12.0078 0.850058 10.3047 0.851076C8.60174 0.852094 6.93268 1.32751 5.48473 2.224C4.03678 3.1205 2.86721 4.40263 2.10714 5.92662C1.34708 7.45062 1.02659 9.15622 1.18162 10.8522C1.33664 12.5481 1.96104 14.1673 2.9848 15.5283C4.00856 16.8892 5.39121 17.9381 6.97769 18.5572C8.56418 19.1763 10.2918 19.3412 11.9667 19.0335C12.3879 18.9542 12.7891 18.7918 13.1468 18.5557C13.5045 18.3196 13.8116 18.0146 14.0501 17.6585C14.307 17.2713 14.4843 16.8369 14.5716 16.3804C14.6589 15.924 14.6544 15.4548 14.5584 15.0002C14.5059 14.7254 14.478 14.4465 14.4751 14.1668C14.4787 13.3593 14.717 12.5702 15.1608 11.8956C15.6046 11.221 16.235 10.6898 16.9751 10.3668C17.3741 10.1881 17.7323 9.92959 18.0276 9.60711C18.3228 9.28462 18.5489 8.90505 18.6917 8.49182C18.8362 8.06956 18.8945 7.62258 18.863 7.17739C18.8315 6.7322 18.7109 6.29787 18.5084 5.90016V5.91682ZM17.0917 7.95016C17.0206 8.14959 16.9102 8.33273 16.7671 8.48875C16.624 8.64477 16.451 8.77049 16.2584 8.85849C15.2334 9.31732 14.3626 10.0623 13.7506 11.0039C13.1386 11.9455 12.8115 13.0438 12.8084 14.1668C12.8096 14.5586 12.8487 14.9493 12.9251 15.3335C12.976 15.5683 12.9793 15.811 12.935 16.0471C12.8906 16.2833 12.7994 16.5081 12.6667 16.7085C12.5545 16.8838 12.4068 17.0337 12.2331 17.1485C12.0595 17.2634 11.8637 17.3406 11.6584 17.3752C11.2133 17.4588 10.7613 17.5007 10.3084 17.5002C9.30355 17.5006 8.30884 17.2992 7.38335 16.9078C6.45786 16.5164 5.62046 15.943 4.92088 15.2216C4.2213 14.5003 3.67381 13.6457 3.31092 12.7087C2.94804 11.7716 2.77715 10.7712 2.80841 9.76682C2.87309 7.89415 3.63258 6.11262 4.93894 4.76929C6.24529 3.42596 8.00494 2.61706 9.87508 2.50016H10.3001C11.6965 2.50051 13.0652 2.89073 14.2518 3.62688C15.4385 4.36303 16.3961 5.41586 17.0167 6.66682C17.2078 7.06264 17.2347 7.51789 17.0917 7.93349V7.95016ZM10.3084 9.16682C10.1436 9.16682 9.98248 9.2157 9.84544 9.30726C9.7084 9.39883 9.60158 9.52898 9.53851 9.68125C9.47544 9.83352 9.45894 10.0011 9.49109 10.1627C9.52324 10.3244 9.60261 10.4729 9.71916 10.5894C9.8357 10.706 9.98419 10.7853 10.1458 10.8175C10.3075 10.8496 10.475 10.8331 10.6273 10.7701C10.7796 10.707 10.9097 10.6002 11.0013 10.4631C11.0929 10.3261 11.1417 10.165 11.1417 10.0002C11.1417 9.77914 11.0539 9.56718 10.8977 9.4109C10.7414 9.25462 10.5294 9.16682 10.3084 9.16682Z" fill="#83828E"/>
</svg>
