<svg width="15" height="16" viewBox="0 0 15 16" fill="none" xmlns="http://www.w3.org/2000/svg">
<path d="M12 1.33325H4C3.46957 1.33325 2.96086 1.54397 2.58579 1.91904C2.21071 2.29411 2 2.80282 2 3.33325V10.6666C2 11.197 2.21071 11.7057 2.58579 12.0808C2.96086 12.4559 3.46957 12.6666 4 12.6666H5.72667L7.52667 14.4733C7.58896 14.535 7.66284 14.5839 7.74406 14.6171C7.82529 14.6503 7.91226 14.6671 8 14.6666C8.1589 14.6666 8.31257 14.6099 8.43333 14.5066L10.58 12.6666H12C12.5304 12.6666 13.0391 12.4559 13.4142 12.0808C13.7893 11.7057 14 11.197 14 10.6666V3.33325C14 2.80282 13.7893 2.29411 13.4142 1.91904C13.0391 1.54397 12.5304 1.33325 12 1.33325ZM12.6667 10.6666C12.6667 10.8434 12.5964 11.013 12.4714 11.138C12.3464 11.263 12.1768 11.3333 12 11.3333H10.3333C10.1744 11.3332 10.0208 11.39 9.9 11.4933L8.03333 13.0933L6.47333 11.5266C6.41104 11.4648 6.33716 11.4159 6.25594 11.3827C6.17471 11.3496 6.08774 11.3327 6 11.3333H4C3.82319 11.3333 3.65362 11.263 3.5286 11.138C3.40357 11.013 3.33333 10.8434 3.33333 10.6666V3.33325C3.33333 3.15644 3.40357 2.98687 3.5286 2.86185C3.65362 2.73682 3.82319 2.66659 4 2.66659H12C12.1768 2.66659 12.3464 2.73682 12.4714 2.86185C12.5964 2.98687 12.6667 3.15644 12.6667 3.33325V10.6666Z" fill="#83828E"/>
</svg>
