<svg width="15" height="16" viewBox="0 0 15 16" fill="none" xmlns="http://www.w3.org/2000/svg">
<path d="M5.33301 8.00008C5.33301 8.17689 5.40325 8.34646 5.52827 8.47149C5.65329 8.59651 5.82286 8.66675 5.99967 8.66675H9.99967C10.1765 8.66675 10.3461 8.59651 10.4711 8.47149C10.5961 8.34646 10.6663 8.17689 10.6663 8.00008C10.6663 7.82327 10.5961 7.6537 10.4711 7.52868C10.3461 7.40365 10.1765 7.33341 9.99967 7.33341H5.99967C5.82286 7.33341 5.65329 7.40365 5.52827 7.52868C5.40325 7.6537 5.33301 7.82327 5.33301 8.00008ZM6.66634 10.0001H4.66634C4.13591 10.0001 3.6272 9.78937 3.25213 9.41429C2.87705 9.03922 2.66634 8.53051 2.66634 8.00008C2.66634 7.46965 2.87705 6.96094 3.25213 6.58587C3.6272 6.21079 4.13591 6.00008 4.66634 6.00008H6.66634C6.84315 6.00008 7.01272 5.92984 7.13775 5.80482C7.26277 5.67979 7.33301 5.51023 7.33301 5.33341C7.33301 5.1566 7.26277 4.98703 7.13775 4.86201C7.01272 4.73699 6.84315 4.66675 6.66634 4.66675H4.66634C3.78229 4.66675 2.93444 5.01794 2.30932 5.64306C1.6842 6.26818 1.33301 7.11603 1.33301 8.00008C1.33301 8.88414 1.6842 9.73198 2.30932 10.3571C2.93444 10.9822 3.78229 11.3334 4.66634 11.3334H6.66634C6.84315 11.3334 7.01272 11.2632 7.13775 11.1382C7.26277 11.0131 7.33301 10.8436 7.33301 10.6667C7.33301 10.4899 7.26277 10.3204 7.13775 10.1953C7.01272 10.0703 6.84315 10.0001 6.66634 10.0001ZM11.333 4.66675H9.33301C9.1562 4.66675 8.98663 4.73699 8.8616 4.86201C8.73658 4.98703 8.66634 5.1566 8.66634 5.33341C8.66634 5.51023 8.73658 5.67979 8.8616 5.80482C8.98663 5.92984 9.1562 6.00008 9.33301 6.00008H11.333C11.8634 6.00008 12.3721 6.21079 12.7472 6.58587C13.1223 6.96094 13.333 7.46965 13.333 8.00008C13.333 8.53051 13.1223 9.03922 12.7472 9.41429C12.3721 9.78937 11.8634 10.0001 11.333 10.0001H9.33301C9.1562 10.0001 8.98663 10.0703 8.8616 10.1953C8.73658 10.3204 8.66634 10.4899 8.66634 10.6667C8.66634 10.8436 8.73658 11.0131 8.8616 11.1382C8.98663 11.2632 9.1562 11.3334 9.33301 11.3334H11.333C12.2171 11.3334 13.0649 10.9822 13.69 10.3571C14.3152 9.73198 14.6663 8.88414 14.6663 8.00008C14.6663 7.11603 14.3152 6.26818 13.69 5.64306C13.0649 5.01794 12.2171 4.66675 11.333 4.66675Z" fill="#83828E"/>
</svg>
