<svg width="20" height="20" viewBox="0 0 20 20" fill="none" xmlns="http://www.w3.org/2000/svg">
<path d="M13.3334 8.3334H11.6667V6.66673C11.6667 6.44572 11.5789 6.23376 11.4227 6.07748C11.2664 5.9212 11.0544 5.8334 10.8334 5.8334H6.66673C6.44572 5.8334 6.23376 5.9212 6.07748 6.07748C5.9212 6.23376 5.8334 6.44572 5.8334 6.66673V10.8334C5.8334 11.0544 5.9212 11.2664 6.07748 11.4227C6.23376 11.5789 6.44572 11.6667 6.66673 11.6667H8.3334V13.3334C8.3334 13.5544 8.4212 13.7664 8.57748 13.9227C8.73376 14.0789 8.94572 14.1667 9.16673 14.1667H13.3334C13.5544 14.1667 13.7664 14.0789 13.9227 13.9227C14.0789 13.7664 14.1667 13.5544 14.1667 13.3334V9.16673C14.1667 8.94572 14.0789 8.73376 13.9227 8.57748C13.7664 8.4212 13.5544 8.3334 13.3334 8.3334ZM8.3334 9.16673V10.0001H7.50007V7.50007H10.0001V8.3334H9.16673C8.94572 8.3334 8.73376 8.4212 8.57748 8.57748C8.4212 8.73376 8.3334 8.94572 8.3334 9.16673ZM12.5001 12.5001H10.0001V10.0001H12.5001V12.5001ZM17.5001 15.2334V4.76673C17.7254 4.64137 17.9187 4.46542 18.0645 4.25272C18.2103 4.04002 18.3048 3.79638 18.3405 3.54097C18.3762 3.28555 18.3522 3.02534 18.2703 2.7808C18.1883 2.53626 18.0508 2.31407 17.8684 2.13171C17.6861 1.94935 17.4639 1.8118 17.2193 1.72988C16.9748 1.64795 16.7146 1.6239 16.4592 1.65961C16.2038 1.69531 15.9601 1.7898 15.7474 1.93564C15.5347 2.08148 15.3588 2.27469 15.2334 2.50007H4.76673C4.64137 2.27469 4.46542 2.08148 4.25272 1.93564C4.04002 1.7898 3.79638 1.69531 3.54097 1.65961C3.28555 1.6239 3.02534 1.64795 2.7808 1.72988C2.53626 1.8118 2.31407 1.94935 2.13171 2.13171C1.94935 2.31407 1.8118 2.53626 1.72988 2.7808C1.64795 3.02534 1.6239 3.28555 1.65961 3.54097C1.69531 3.79638 1.7898 4.04002 1.93564 4.25272C2.08148 4.46542 2.27469 4.64137 2.50007 4.76673V15.2334C2.27469 15.3588 2.08148 15.5347 1.93564 15.7474C1.7898 15.9601 1.69531 16.2038 1.65961 16.4592C1.6239 16.7146 1.64795 16.9748 1.72988 17.2193C1.8118 17.4639 1.94935 17.6861 2.13171 17.8684C2.31407 18.0508 2.53626 18.1883 2.7808 18.2703C3.02534 18.3522 3.28555 18.3762 3.54097 18.3405C3.79638 18.3048 4.04002 18.2103 4.25272 18.0645C4.46542 17.9187 4.64137 17.7254 4.76673 17.5001H15.2334C15.3588 17.7254 15.5347 17.9187 15.7474 18.0645C15.9601 18.2103 16.2038 18.3048 16.4592 18.3405C16.7146 18.3762 16.9748 18.3522 17.2193 18.2703C17.4639 18.1883 17.6861 18.0508 17.8684 17.8684C18.0508 17.6861 18.1883 17.4639 18.2703 17.2193C18.3522 16.9748 18.3762 16.7146 18.3405 16.4592C18.3048 16.2038 18.2103 15.9601 18.0645 15.7474C17.9187 15.5347 17.7254 15.3588 17.5001 15.2334ZM15.8334 15.2334C15.5828 15.3754 15.3754 15.5828 15.2334 15.8334H4.76673C4.62471 15.5828 4.41734 15.3754 4.16673 15.2334V4.76673C4.41734 4.62471 4.62471 4.41734 4.76673 4.16673H15.2334C15.3754 4.41734 15.5828 4.62471 15.8334 4.76673V15.2334Z" fill="#5A5869"/>
</svg>
