<svg width="20" height="20" viewBox="0 0 20 20" fill="none" xmlns="http://www.w3.org/2000/svg">
<path d="M17.5003 1.6665H2.50033C2.27931 1.6665 2.06735 1.7543 1.91107 1.91058C1.75479 2.06686 1.66699 2.27882 1.66699 2.49984V17.4998C1.66699 17.7209 1.75479 17.9328 1.91107 18.0891C2.06735 18.2454 2.27931 18.3332 2.50033 18.3332H17.5003C17.7213 18.3332 17.9333 18.2454 18.0896 18.0891C18.2459 17.9328 18.3337 17.7209 18.3337 17.4998V2.49984C18.3337 2.27882 18.2459 2.06686 18.0896 1.91058C17.9333 1.7543 17.7213 1.6665 17.5003 1.6665V1.6665ZM6.66699 16.6665H3.33366V3.33317H6.66699V16.6665ZM16.667 16.6665H8.33366V3.33317H16.667V16.6665Z" fill="#F93E6C"/>
</svg>
